<?xml version="1.0" encoding="utf-8"?>
<!-- Generator: Adobe Illustrator 22.1.0, SVG Export Plug-In . SVG Version: 6.00 Build 0)  -->
<svg version="1.1" id="Layer_1" xmlns="http://www.w3.org/2000/svg" xmlns:xlink="http://www.w3.org/1999/xlink" x="0px" y="0px"
	 viewBox="0 0 64 68.5" style="enable-background:new 0 0 64 68.5;" xml:space="preserve">
<style type="text/css">
	.st0{display:none;}
	.st1{opacity:0.17;fill:#5C59ED;enable-background:new    ;}
	.st2{opacity:0.24;fill:#5C59ED;enable-background:new    ;}
	.st3{fill:none;stroke:#5C59ED;stroke-width:3.0492;stroke-linecap:round;stroke-linejoin:round;stroke-miterlimit:10;}
	.st4{opacity:0.25;fill:#5C59ED;enable-background:new    ;}
	.st5{fill:#1F1F3A;}
</style>
<g id="Layer_1_1_" class="st0">
</g>
<g id="Layer_2_1_">
	<polygon class="st1" points="31.7,63.8 4.6,48.8 4.6,41.2 22.1,30.4 31.6,42.9 41,29 58.8,41.2 58.8,49 	"/>
	<path class="st2" d="M60.3,20.7v-0.1c0-0.2-0.1-0.3-0.1-0.5l0,0l0,0c-0.1-0.2-0.2-0.3-0.3-0.4l-0.1-0.1l-0.1-0.1L32.5,3.6
		c-0.5-0.3-1.1-0.3-1.5,0L3.9,19.4l-0.1,0.1l-0.1,0.1c-0.1,0.1-0.3,0.3-0.3,0.4l0,0l0,0c-0.1,0.1-0.1,0.3-0.1,0.5v0.1v0.1v25.2
		c0,0.8,0.7,1.5,1.5,1.5s1.5-0.7,1.5-1.5V23.3l24,13.3v19.2c0,0.8,0.7,1.5,1.5,1.5s1.5-0.7,1.5-1.5V36.6l24-13.3v22.1
		c0,0.8,0.7,1.5,1.5,1.5s1.5-0.7,1.5-1.5V20.7L60.3,20.7z M31.7,6.7l24,14L31.7,34l-24-13.2L31.7,6.7z"/>
	<g>
		<polyline class="st3" points="22.1,30.4 4.6,41.2 31.6,55.8 58.8,41.2 41.7,30.7 		"/>
		<polyline class="st3" points="58.8,41.2 58.8,49 31.7,63.8 4.6,48.8 4.6,41.2 		"/>
	</g>
	<ellipse class="st4" cx="31.7" cy="43.2" rx="7.2" ry="2.9"/>
	<path id="XMLID_1054_" class="st5" d="M38.9,17.1c-1.8-1.6-4.4-2.5-7.2-2.5s-5.4,0.9-7.2,2.5c-2.2,2-3.4,5-3.4,8.7
		c0,8.1,9.3,17.5,9.7,17.9c0.2,0.2,0.6,0.4,0.9,0.4s0.7-0.1,0.9-0.4c0.4-0.4,9.7-9.8,9.7-17.9C42.3,22.1,41.1,19.1,38.9,17.1z
		 M31.7,40.9c-0.9-1-2.2-2.6-3.6-4.5c-2.9-4.1-4.4-7.8-4.4-10.6c0-8,6.1-8.7,8-8.7c7.4,0,8,6.6,8,8.7C39.7,31.4,34,38.4,31.7,40.9z
		 M31.7,20.1c-2.8,0-5.1,2.3-5.1,5.2s2.3,5.2,5.1,5.2s5.1-2.3,5.1-5.2S34.5,20.1,31.7,20.1z M31.7,28.2c-1.6,0-2.9-1.3-2.9-2.9
		s1.3-2.9,2.9-2.9c1.6,0,2.9,1.3,2.9,2.9S33.3,28.2,31.7,28.2z"/>
</g>
</svg>
